<svg xmlns="http://www.w3.org/2000/svg" width="864" height="679.39" viewBox="0 0 864 679.39" role="img" aria-label="PyFly architecture: one front door over five layers on an async core." font-family="-apple-system,'Segoe UI',Helvetica,Arial,sans-serif" data-original-view-box="0 0 864 612">
  <defs>
    <linearGradient id="hdr" x1="0" y1="0" x2="0" y2="1"><stop offset="0" stop-color="#10110f"/><stop offset="1" stop-color="#10110f"/></linearGradient>
    <linearGradient id="door" x1="0" y1="0" x2="0" y2="1"><stop offset="0" stop-color="#ffb34a"/><stop offset="1" stop-color="#8a5714"/></linearGradient>
    <linearGradient id="bed" x1="0" y1="0" x2="0" y2="1"><stop offset="0" stop-color="#10110f"/><stop offset="1" stop-color="#10110f"/></linearGradient>
    <radialGradient id="amb" cx="720" cy="72" r="520" gradientUnits="userSpaceOnUse"><stop offset="0" stop-color="#10110f" stop-opacity="0.10"/><stop offset="1" stop-color="#10110f" stop-opacity="0"/></radialGradient>
    <filter id="sh" x="-25%" y="-25%" width="150%" height="170%"><feDropShadow dx="0" dy="2" stdDeviation="3.2" flood-color="#10110f" flood-opacity="0.15"/></filter>
    <marker id="arr" markerWidth="9" markerHeight="9" refX="6.2" refY="3.2" orient="auto"><path d="M0 0L7 3.2L0 6.4Z" fill="#10110f"/></marker>
    <marker id="arrb" markerWidth="9" markerHeight="9" refX="6.2" refY="3.2" orient="auto"><path d="M0 0L7 3.2L0 6.4Z" fill="#5b7a9d"/></marker>
    <marker id="arra" markerWidth="9" markerHeight="9" refX="6.2" refY="3.2" orient="auto"><path d="M0 0L7 3.2L0 6.4Z" fill="#c2722a"/></marker>
    <g id="fly"><circle r="8.5" fill="#ffb34a" opacity="0.10"/><circle r="4.6" fill="#ffd69a" opacity="0.22"/><circle r="2.4" fill="#ffd69a" opacity="0.75"/><circle r="1.2" fill="#f3f1eb"/></g>
  </defs>
  <rect width="864" height="612" fill="#ffffff"/><rect x="3" y="3" width="858" height="606" rx="18" fill="#ffffff" stroke="#dedbd2" stroke-width="1.5"/><rect x="3" y="3" width="858" height="606" rx="18" fill="url(#amb)"/>
  <svg xmlns="http://www.w3.org/2000/svg" width="34.6" height="38.0" viewBox="0 0 1400 1400" x="24.0" y="18.0" data-brand-decoration="official-mark" aria-hidden="true"><rect width="1400" height="1400" rx="300" fill="#10110f" /><g transform="translate(95 1240) scale(1 -1)"><g data-framework-mark="a2"><path d="M650 1025C335 1070 165 865 165 540C165 210 330 55 600 55C815 55 955 185 1000 365L1085 540L1000 710" fill="none" stroke="#f3f1eb" stroke-width="166" stroke-linecap="round" stroke-linejoin="round" /><circle cx="980" cy="970" r="100" fill="#ffb34a" /></g></g></svg>
  <text x="64" y="45" font-size="21" font-weight="800" fill="#10110f" font-family="-apple-system,'Segoe UI',Helvetica,Arial,sans-serif" letter-spacing="0.2">Architecture at a glance</text>
  <text x="838" y="42" text-anchor="end" font-size="12" font-weight="600" fill="#a6a295" font-family="ui-monospace,'SF Mono',Menlo,Consolas,monospace">fireflyframework-pyfly</text>
  <line x1="26" y1="62" x2="838" y2="62" stroke="#8a5714" stroke-width="1.4" opacity="0.42"/>
  <text x="26" y="84" font-size="12.5" font-style="italic" fill="#62645b" font-family="-apple-system,'Segoe UI',Helvetica,Arial,sans-serif">One install, one decorator — five cohesive layers on an async-native core.</text>
  <rect x="66" y="100" width="726" height="50" rx="12" fill="url(#door)" stroke="#8a5714" stroke-width="1.2" filter="url(#sh)"/>
  <rect x="80" y="106" width="698" height="2" rx="1" fill="#fffdf5" opacity="0.28"/>
  <g transform="translate(94.0,125.0) scale(0.9167) translate(-12.0,-12.0)"><path d="M14.25.18l.9.2.73.26.59.3.45.32.34.34.25.34.16.33.1.3.04.26.02.2-.01.13V8.5l-.05.63-.13.55-.21.46-.26.38-.3.31-.33.25-.35.19-.35.14-.33.1-.3.07-.26.04-.21.02H8.77l-.69.05-.59.14-.5.22-.41.27-.33.32-.27.35-.2.36-.15.37-.1.35-.07.32-.04.27-.02.21v3.06H3.17l-.21-.03-.28-.07-.32-.12-.35-.18-.36-.26-.36-.36-.35-.46-.32-.59-.28-.73-.21-.88-.14-1.05-.05-1.23.06-1.22.16-1.04.24-.87.32-.71.36-.57.4-.44.42-.33.42-.24.4-.16.36-.1.32-.05.24-.01h.16l.06.01h8.16v-.83H6.18l-.01-2.75-.02-.37.05-.34.11-.31.17-.28.25-.26.31-.23.38-.2.44-.18.51-.15.58-.12.64-.1.71-.06.77-.04.84-.02 1.27.05zm-6.3 1.98l-.23.33-.08.41.08.41.23.34.33.22.41.09.41-.09.33-.22.23-.34.08-.41-.08-.41-.23-.33-.33-.22-.41-.09-.41.09zm13.09 3.95l.28.06.32.12.35.18.36.27.36.35.35.47.32.59.28.73.21.88.14 1.04.05 1.23-.06 1.23-.16 1.04-.24.86-.32.71-.36.57-.4.45-.42.33-.42.24-.4.16-.36.09-.32.05-.24.02-.16-.01h-8.22v.82h5.84l.01 2.76.02.36-.05.34-.11.31-.17.29-.25.25-.31.24-.38.2-.44.17-.51.15-.58.13-.64.09-.71.07-.77.04-.84.01-1.27-.04-1.07-.14-.9-.2-.73-.25-.59-.3-.45-.33-.34-.34-.25-.34-.16-.33-.1-.3-.04-.25-.02-.2.01-.13v-5.34l.05-.64.13-.54.21-.46.26-.38.3-.32.33-.24.35-.2.35-.14.33-.1.3-.06.26-.04.21-.02.13-.01h5.84l.69-.05.59-.14.5-.21.41-.28.33-.32.27-.35.2-.36.15-.36.1-.35.07-.32.04-.28.02-.21V6.07h2.09l.14.01zm-6.47 14.25l-.23.33-.08.41.08.41.23.33.33.23.41.08.41-.08.33-.23.23-.33.08-.41-.08-.41-.23-.33-.33-.23-.41-.08-.41.08z" fill="#10110f"/></g>
  <text x="116" y="120" font-size="10.5" font-weight="800" fill="#10110f" letter-spacing="1.4">THE FRONT DOOR</text>
  <text x="116" y="139" font-size="15" font-weight="800" fill="#10110f" font-family="ui-monospace,'SF Mono',Menlo,Consolas,monospace">pyfly + extras · @pyfly_application</text>
  <text x="776" y="120" text-anchor="end" font-size="11" fill="#10110f" font-weight="700">one install</text>
  <text x="776" y="139" text-anchor="end" font-size="11" fill="#10110f" font-weight="700">one decorator</text>
  <g stroke="#8a5714" stroke-width="1.4" stroke-dasharray="2 3" opacity="0.7"><line x1="153" y1="150" x2="153" y2="170"/><line x1="335" y1="150" x2="335" y2="170"/><line x1="516" y1="150" x2="516" y2="170"/><line x1="698" y1="150" x2="698" y2="170"/></g>
  <line x1="46" y1="174" x2="46" y2="516" stroke="#10110f" stroke-width="2.2" marker-end="url(#arr)"/>
  <text x="28" y="345" text-anchor="middle" font-size="10.5" font-weight="700" fill="#8a5714" letter-spacing="0.08em" transform="rotate(-90,28,345)">DEPENDS ON</text>
  <g filter="url(#sh)"><rect x="66" y="170.0" width="726" height="66" rx="11" fill="#ffffff" stroke="#8a5714" stroke-width="2"/><path d="M66 181.0a11 11 0 0 1 11 -11h704a11 11 0 0 1 11 11v15H66Z" fill="#10110f"/></g>
  <circle cx="86" cy="183.0" r="10.5" fill="#10110f"/><text x="86" y="186.6" text-anchor="middle" fill="#fff" font-size="10.5" font-weight="700" font-family="-apple-system,'Segoe UI',Helvetica,Arial,sans-serif">1</text>
  <text x="104" y="188.0" fill="#fff" font-size="13" font-weight="700">Cross-Cutting</text>
  <text x="197" y="188.0" fill="#f3f1eb" font-size="10" font-weight="600">(6 modules)</text>
  <text x="88" y="219.0" fill="#62645b" font-size="11" font-family="ui-monospace,'SF Mono',Menlo,Consolas,monospace">aop · observability · actuator · admin · testing · cli</text>
  <g filter="url(#sh)"><rect x="66" y="241.5" width="726" height="66" rx="11" fill="#ffffff" stroke="#8a5714" stroke-width="2"/><path d="M66 252.5a11 11 0 0 1 11 -11h704a11 11 0 0 1 11 11v15H66Z" fill="#10110f"/></g>
  <circle cx="86" cy="254.5" r="10.5" fill="#10110f"/><text x="86" y="258.1" text-anchor="middle" fill="#fff" font-size="10.5" font-weight="700" font-family="-apple-system,'Segoe UI',Helvetica,Arial,sans-serif">2</text>
  <text x="104" y="259.5" fill="#fff" font-size="13" font-weight="700">Integration</text>
  <text x="177" y="259.5" fill="#f3f1eb" font-size="10" font-weight="600">(6 modules)</text>
  <text x="88" y="290.5" fill="#62645b" font-size="11" font-family="ui-monospace,'SF Mono',Menlo,Consolas,monospace">idp · ecm · notifications · callbacks · webhooks · starters</text>
  <g filter="url(#sh)"><rect x="66" y="313.0" width="726" height="66" rx="11" fill="#ffffff" stroke="#8a5714" stroke-width="2"/><path d="M66 324.0a11 11 0 0 1 11 -11h704a11 11 0 0 1 11 11v15H66Z" fill="#10110f"/></g>
  <circle cx="86" cy="326.0" r="10.5" fill="#10110f"/><text x="86" y="329.6" text-anchor="middle" fill="#fff" font-size="10.5" font-weight="700" font-family="-apple-system,'Segoe UI',Helvetica,Arial,sans-serif">3</text>
  <text x="104" y="331.0" fill="#fff" font-size="13" font-weight="700">Infrastructure</text>
  <text x="195" y="331.0" fill="#f3f1eb" font-size="10" font-weight="600">(14 modules)</text>
  <text x="88" y="362.0" fill="#62645b" font-size="11" font-family="ui-monospace,'SF Mono',Menlo,Consolas,monospace">security · messaging · eda · cache · client · scheduling · resilience · transactional · …</text>
  <g filter="url(#sh)"><rect x="66" y="384.5" width="726" height="66" rx="11" fill="#ffffff" stroke="#8a5714" stroke-width="2"/><path d="M66 395.5a11 11 0 0 1 11 -11h704a11 11 0 0 1 11 11v15H66Z" fill="#10110f"/></g>
  <circle cx="86" cy="397.5" r="10.5" fill="#10110f"/><text x="86" y="401.1" text-anchor="middle" fill="#fff" font-size="10.5" font-weight="700" font-family="-apple-system,'Segoe UI',Helvetica,Arial,sans-serif">4</text>
  <text x="104" y="402.5" fill="#fff" font-size="13" font-weight="700">Application</text>
  <text x="181" y="402.5" fill="#f3f1eb" font-size="10" font-weight="600">(7 modules)</text>
  <text x="88" y="433.5" fill="#62645b" font-size="11" font-family="ui-monospace,'SF Mono',Menlo,Consolas,monospace">web · server · data · data-relational · data-document · cqrs · validation</text>
  <g filter="url(#sh)"><rect x="66" y="456.0" width="726" height="66" rx="11" fill="#ffffff" stroke="#8a5714" stroke-width="2"/><path d="M66 467.0a11 11 0 0 1 11 -11h704a11 11 0 0 1 11 11v15H66Z" fill="#10110f"/></g>
  <circle cx="86" cy="469.0" r="10.5" fill="#10110f"/><text x="86" y="472.6" text-anchor="middle" fill="#fff" font-size="10.5" font-weight="700" font-family="-apple-system,'Segoe UI',Helvetica,Arial,sans-serif">5</text>
  <text x="104" y="474.0" fill="#fff" font-size="13" font-weight="700">Foundation</text>
  <text x="181" y="474.0" fill="#f3f1eb" font-size="10" font-weight="600">(6 modules)</text>
  <text x="778" y="474.0" text-anchor="end" fill="#f3f1eb" font-size="9.5" font-weight="700" letter-spacing="0.06em">BASE LAYER</text>
  <text x="88" y="505.0" fill="#62645b" font-size="11" font-family="ui-monospace,'SF Mono',Menlo,Consolas,monospace">kernel · core · container · context · config · logging</text>
  <rect x="66" y="531.5" width="726" height="46" rx="12" fill="#10110f"/>
  <circle cx="96" cy="554.5" r="12" fill="none" stroke="#ffb34a" stroke-width="1.4" opacity="0.7"/><ellipse cx="96" cy="554.5" rx="12" ry="4.5" fill="none" stroke="#ffd69a" stroke-width="1" opacity="0.5"/><circle cx="96" cy="554.5" r="3.3" fill="#ffd69a"/>
  <text x="122" y="551.5" font-size="13" font-weight="800" fill="#f3f1eb" font-family="ui-monospace,'SF Mono',Menlo,Consolas,monospace">async core</text>
  <text x="122" y="567.5" font-size="10.5" fill="#a6a295">asyncio · uvloop · ASGI — the event loop every layer runs on</text>
  <text x="778" y="558.5" text-anchor="end" font-size="10.5" fill="#a6a295" font-weight="600">Granian · Uvicorn · Hypercorn</text>

<g data-framework-brand="2026-10-08" aria-hidden="true"><rect x="0" y="612" width="864" height="67.39" fill="#ffffff"/><path d="M12 614H852" stroke="#dedbd2" stroke-width="1"/><path d="M12 614H86.4" stroke="#ffb34a" stroke-width="2"/><!-- framework-logo:start --><svg xmlns="http://www.w3.org/2000/svg" width="90.77" height="58.75" viewBox="0 0 373.88 242" x="761.23" y="616.32" aria-hidden="true"><g fill="#10110f" transform="translate(20 130) scale(0.07 -0.07)"><g transform="translate(0 0)"><path d="M636 -30Q484 -30 380 46Q346 70 318 100L318 -480L139 -480L139 1080L298 1080L298 960Q334 1003 381 1036Q485 1110 637 1110Q787 1110 895.5 1035.5Q1004 961 1062 832Q1120 703 1120 541Q1120 379 1062 250Q1004 121 895.5 45.5Q787 -30 636 -30ZM614 133Q721 133 791 187Q861 241 896 333.5Q931 426 931 541Q931 655 896.5 747Q862 839 790.5 893Q719 947 609 947Q504 947 435 895.5Q366 844 332 752.5Q298 661 298 541Q298 423 331.5 330.5Q365 238 435 185.5Q505 133 614 133Z" /></g><g transform="translate(1160 0)"><path d="M290 -480L468 4L30 1080L217 1080L554 230L870 1080L1051 1080L463 -480Z" /></g><g transform="translate(2316 0)"><path d="M243 0L243 933L60 933L60 1080L243 1080L243 1139Q243 1181 247 1224.5Q251 1268 265 1309.5Q279 1351 311 1386Q348 1427 392 1444.5Q436 1462 481.5 1466Q527 1470 568 1470L705 1470L705 1322L578 1322Q499 1322 460 1283.5Q421 1245 421 1167L421 1080L954 1080L954 1470L1132 1470L1132 0L954 0L954 933L421 933L421 0Z" /></g><g transform="translate(3608 0)"><g data-family-terminal="trail-y"><defs><linearGradient id="brand-7e944f3f90-logo-family-pyfly-20-130-140" gradientUnits="userSpaceOnUse" x1="30" y1="1080" x2="554" y2="230"><stop offset="0" stop-color="#ffb34a" stop-opacity="0.2" /><stop offset="0.8" stop-color="#ffb34a" stop-opacity="1" /></linearGradient></defs><path d="M290 -480L468 4L30 1080L217 1080L554 230L870 1080L1051 1080L463 -480Z" fill="url(#brand-7e944f3f90-logo-family-pyfly-20-130-140)" /></g></g></g><g fill="#62645b" transform="translate(25 210) scale(0.0155 -0.0155)"><path d="M625 -30Q476 -30 373 46Q314 89 271 150L271 0L139 0L139 1440L287 1440L287 953Q325 1001 375 1036Q479 1110 631 1110Q779 1110 885 1035Q991 960 1047.5 831Q1104 702 1104 541Q1104 379 1047 250Q990 121 883 45.5Q776 -30 625 -30ZM610 107Q723 107 798 164Q873 221 910.5 319.5Q948 418 948 541Q948 663 911 761Q874 859 798.5 916Q723 973 607 973Q494 973 419.5 918Q345 863 308 765.5Q271 668 271 541Q271 416 308 317.5Q345 219 420 163Q495 107 610 107Z" transform="translate(0 0)" /><path d="M294 -480L472 3L33 1080L189 1080L544 192L871 1080L1021 1080L441 -480Z" transform="translate(1131 0)" /></g><svg x="76" y="183" width="143" height="45.48" viewBox="5 -148 619.4 197"><defs><linearGradient id="brand-7e944f3f90-logo-firefly-trail" gradientUnits="userSpaceOnUse" x1="567.4" y1="-108" x2="623.4" y2="-54"><stop offset="0" stop-color="#ffb34a" stop-opacity="0.2" /><stop offset="0.8" stop-color="#ffb34a" stop-opacity="1" /></linearGradient></defs><path d="M24.3 0L24.3 -93.3L6 -93.3L6 -108L24.3 -108L24.3 -113.9Q24.3 -118.1 24.7 -122.45Q25.1 -126.8 26.5 -130.95Q27.9 -135.1 31.1 -138.6Q34.8 -142.7 39.2 -144.45Q43.6 -146.2 48.15 -146.6Q52.7 -147 56.8 -147L70.5 -147L70.5 -132.2L57.8 -132.2Q49.9 -132.2 46 -128.35Q42.1 -124.5 42.1 -116.7L42.1 -108L70.5 -108L70.5 -93.3L42.1 -93.3L42.1 0ZM91.5 0L91.5 -108L109.3 -108L109.3 0ZM134.8 0L134.8 -108L150.7 -108L150.7 -90.8Q151.8 -92.7 153.1 -94.5Q156.1 -98.7 159.9 -101.4Q164.1 -104.8 169.4 -106.6Q174.7 -108.4 180.2 -108.75Q185.7 -109.1 190.5 -108L190.5 -91.3Q184.9 -92.8 178.2 -92.1Q171.5 -91.4 165.8 -87.2Q160.6 -83.5 157.75 -78.2Q154.9 -72.9 153.8 -66.75Q152.7 -60.6 152.7 -54.2L152.7 0ZM247.3 3Q231.4 3 219.55 -4.05Q207.7 -11.1 201.1 -23.75Q194.5 -36.4 194.5 -53.3Q194.5 -71 201 -83.95Q207.5 -96.9 219.15 -103.95Q230.8 -111 246.5 -111Q262.8 -111 274.25 -103.5Q285.7 -96 291.45 -82.1Q297.2 -68.2 296.4 -49L213.6 -49Q214.6 -33.5 222 -24.4Q230.6 -13.9 246.5 -13.9Q257.2 -13.9 265.1 -18.8Q273 -23.7 277.5 -32.9L294.6 -27Q288.3 -12.7 275.65 -4.85Q263 3 247.3 3ZM277.9 -63.3Q276.5 -77.4 270.3 -85.2Q262.5 -95 247.1 -95Q230.6 -95 222 -84.4Q215.5 -76.4 213.9 -63.3ZM324.4 0L324.4 -93.3L306.1 -93.3L306.1 -108L324.4 -108L324.4 -113.9Q324.4 -118.1 324.8 -122.45Q325.2 -126.8 326.6 -130.95Q328 -135.1 331.2 -138.6Q334.9 -142.7 339.3 -144.45Q343.7 -146.2 348.25 -146.6Q352.8 -147 356.9 -147L370.6 -147L370.6 -132.2L357.9 -132.2Q350 -132.2 346.1 -128.35Q342.2 -124.5 342.2 -116.7L342.2 -108L395.5 -108L395.5 -147L413.3 -147L413.3 0L395.5 0L395.5 -93.3L342.2 -93.3L342.2 0ZM452.8 48L470.6 -0.4L426.8 -108L445.5 -108L479.2 -23L510.8 -108L528.9 -108L470.1 48Z" fill="#10110f" /><circle cx="100.4" cy="-136.3" r="9.97" fill="#ffb34a" /><path d="M567.4 -108L623.4 -54L603.4 -54L547.4 -108Z" fill="url(#brand-7e944f3f90-logo-firefly-trail)" /><path d="M623.4 -54L567.4 0L547.4 0L603.4 -54Z" fill="#ffb34a" /></svg></svg><!-- framework-logo:end --></g>
</svg>
